<?xml version="1.0" encoding="UTF-8"?><svg id="_レイヤー_1" xmlns="http://www.w3.org/2000/svg" viewBox="0 0 512 512"><defs><style>.cls-1{fill:#42210b;}.cls-1,.cls-2,.cls-3{stroke-width:0px;}.cls-2{fill:none;}.cls-3{fill:#fff;}</style></defs><rect class="cls-1" x=".5" y=".5" width="511" height="511"/><path class="cls-3" d="M511,1v510H1V1h510M512,0H0v512h512V0h0Z"/><path class="cls-3" d="M233.57,249.82c0,.47-.2.87-.59,1.18-4.26,3.71-7.68,6.62-10.28,8.75-2.6,2.13-4.49,3.59-5.67,4.37-6.93,5.12-12.22,7.68-15.84,7.68-2.2,0-4.29-.67-6.26-2.01-1.81-1.26-2.8-2.84-2.96-4.73,0-2.91,1.54-6.34,4.61-10.28,2.76-3.62,5.2-5.67,7.33-6.15,1.02,0,1.54.35,1.54,1.06,0,.63-1.26,2.36-3.78,5.2-2.21,2.84-3.39,5.52-3.55,8.04,0,3.15,1.46,4.77,4.37,4.85,3.31,0,13.24-6.15,29.79-18.44.16-.16.39-.24.71-.24.24,0,.43.24.59.71ZM214.3,240.95c0,2.21-1.58,3.31-4.73,3.31s-4.61-1.1-4.61-3.31,1.54-3.43,4.61-3.43,4.73,1.14,4.73,3.43Z"/><path class="cls-3" d="M260.4,249.82c0,.47-.16.91-.47,1.3-4.1,3.47-7.56,6.31-10.4,8.51-2.84,2.21-5.08,3.86-6.74,4.96-7.88,5.28-15.01,8-21.39,8.16-5.44,0-8.19-2.8-8.27-8.39,0-3.47,2.01-7.52,6.03-12.18,4.34-4.49,7.96-6.74,10.87-6.74,1.02,0,1.93.4,2.72,1.18.87.71,1.3,1.5,1.3,2.36,0,.71-.14,1.38-.41,2.01-.28.63-.85,1.38-1.71,2.25-.79.79-1.52,1.44-2.19,1.95-.67.51-1.44,1.08-2.3,1.71-1.26.95-2.62,1.91-4.08,2.9-1.46.99-3.13,1.95-5.02,2.9-.08,1.89.71,3.47,2.36,4.73,1.34.87,2.8,1.3,4.37,1.3,4.1,0,10.2-2.64,18.32-7.92.79-.55,2.48-1.77,5.08-3.67,2.6-1.89,6.15-4.53,10.64-7.92.24-.08.51-.12.83-.12.24,0,.39.24.47.71ZM228.84,250.29c0-.63-.51-.95-1.54-.95-.55,0-1.3.3-2.25.89-.95.59-1.97,1.52-3.07,2.78-.79.87-1.5,1.85-2.13,2.96-.63,1.11-1.02,2.09-1.18,2.96.16,0,.47-.08.95-.24.47-.16.91-.35,1.3-.59,2.05-1.1,3.88-2.4,5.5-3.9,1.62-1.5,2.42-2.8,2.42-3.9Z"/><path class="cls-3" d="M315.72,249.82c0,.47-.16.91-.47,1.3-7.64,6.31-13,10.48-16.08,12.53-7.17,4.89-13.36,7.33-18.56,7.33-4.49,0-6.74-2.36-6.74-7.09,0-.87.1-1.95.3-3.25.2-1.3.53-2.86,1.01-4.67-3,1.73-6.05,3.53-9.16,5.38-3.11,1.85-6.32,3.88-9.63,6.09-4.65,3.07-7.17,4.61-7.56,4.61-.08,0-.39-.16-.95-.47-.47-.24-.71-.51-.71-.83,0-.55.34-1.46,1.01-2.72.67-1.26,1.79-2.99,3.37-5.2,1.65-2.44,2.98-4.39,3.96-5.85.99-1.46,1.67-2.5,2.07-3.13-.32-.47-.47-1.14-.47-2.01,0-.63.51-1.3,1.54-2.01,1.1-.63,1.97-.99,2.6-1.06,2.68,0,4.02,1.02,4.02,3.07,0,.55-1.26,2.56-3.78,6.03-1.18,1.5-2.19,2.76-3.01,3.78-.83,1.02-1.56,1.85-2.19,2.48,14.97-10.24,24.63-15.37,28.96-15.37.39,0,.71.51.95,1.54,0,.16-1.22,1.62-3.67,4.37-1.1,1.42-1.97,2.78-2.6,4.08-.63,1.3-.95,2.62-.95,3.96,0,2.92,2.01,4.37,6.03,4.37,2.99,0,8-2.36,15.01-7.09,1.34-.79,6.15-4.33,14.42-10.64.24-.08.51-.12.83-.12.24,0,.39.2.47.59Z"/><path class="cls-2" d="M43.23,288.04c1.65,15.02,20.44,19.58,35.84,19.62,27.22-.27,46.7-12.03,68.19-31.92l-28.86-8.87c-30.02-8.13-70.73-15.07-75.17,21.16Z"/><path class="cls-3" d="M383.27,292.73c-22.75-1.89-40.16-12.05-68.09-11.74-61.85.69-92.24,19.39-160.85-10.16l-7.55,7.01c.35-.29.69-.57,1.04-.86,73.14,31.29,101.82,14.04,169.88,10.75,23.44-1.13,42.61,6.87,64.81,8.72,23.64,1.97,57.54-5.71,81.59-21.73.77-.64,1.15-1,1.15-1.09-37.43,16.91-61.07,20.85-81.99,19.11Z"/><path class="cls-3" d="M156.22,271.72c17.9-19.95,33.8-54.67,56.67-66.37,1.03-.83,3.23-2.53,3.31-3.48-9.89-11.85-52.97,59.96-64.28,68.9-115.16-49.37-143.07,40.06-78.89,40.66,31.5-.21,53.71-11.6,77.7-33.41l6.08-6.08c-.2-.08-.39-.15-.59-.22ZM79.08,307.66c-15.4-.04-34.2-4.61-35.84-19.62,4.44-36.23,45.15-29.28,75.17-21.16l28.86,8.87c-21.49,19.89-40.97,31.64-68.19,31.92Z"/><path class="cls-3" d="M471.24,270.99c-.64,0-1.25-.18-1.76-.57-1.52-1.15-1.55-3.67-.07-5.62,1.48-1.95,3.91-2.6,5.43-1.45,1.52,1.15,1.55,3.67.07,5.62-.98,1.29-2.39,2.02-3.67,2.02ZM470.25,269.75c1.09.64,2.79.06,3.88-1.37,1.06-1.4,1.19-3.13.34-4.03-1.14,2.08-2.41,4.17-4.22,5.41ZM473.06,263.77c-.97,0-2.07.59-2.86,1.64-.92,1.21-1.14,2.67-.64,3.62,1.71-1.11,2.94-3.15,4.06-5.18-.18-.05-.37-.07-.56-.07ZM476.1,259.35c-.49,0-.98-.1-1.43-.31-1.06-.49-1.8-1.49-2.09-2.81-.27-1.27-.09-2.69.52-4.01,1.28-2.77,4.06-4.22,6.21-3.24h0c1.06.49,1.8,1.49,2.09,2.81.27,1.27.09,2.69-.52,4.01-1.01,2.18-2.95,3.55-4.77,3.55ZM475.14,258.17c1.64.71,3.8-.53,4.84-2.78.52-1.13.68-2.33.46-3.39-.2-.92-.67-1.63-1.34-2.02-.89,3.02-1.93,6.13-3.96,8.19ZM477.85,249.65c-1.44,0-3.02,1.16-3.86,2.98-.52,1.13-.68,2.33-.45,3.39.14.64.4,1.17.78,1.57,1.95-1.9,2.97-4.96,3.84-7.92-.1-.01-.2-.02-.3-.02Z"/><path class="cls-3" d="M104.01,243.48h5.46v-33.62h-5.46v-.69h15.83v.69h-5.46v33.62h8.75c2.88,0,5.14-.9,6.78-2.7,1.64-1.8,2.83-4.26,3.59-7.37h.54v10.76h-30.03v-.69Z"/><path class="cls-3" d="M143.38,231.98c0,.33,0,.66-.02,1.01-.02.34-.03.78-.03,1.3,0,1.08.07,2.21.2,3.39.13,1.18.42,2.24.86,3.19s1.1,1.74,1.97,2.36c.87.62,2.02.93,3.46.93s2.63-.21,3.56-.64c.93-.43,1.67-.94,2.21-1.55s.94-1.22,1.2-1.84c.26-.62.46-1.13.59-1.52l.74.15c-.1.36-.29.88-.57,1.55-.28.67-.72,1.34-1.33,2.02s-1.43,1.26-2.46,1.77-2.37.76-4.01.76-3.15-.26-4.55-.79-2.6-1.28-3.61-2.26c-1.02-.98-1.8-2.15-2.36-3.51-.56-1.36-.84-2.88-.84-4.55,0-1.44.29-2.84.86-4.2.57-1.36,1.36-2.56,2.36-3.61,1-1.05,2.17-1.89,3.51-2.53,1.34-.64,2.78-.96,4.32-.96.92,0,1.9.17,2.95.49s2.02.86,2.93,1.6c.9.74,1.65,1.71,2.26,2.92.61,1.21.91,2.72.91,4.52h-15.14ZM153.5,231.29c.07-.46.1-.89.1-1.28v-1.23c0-1.11-.11-2.03-.32-2.75-.21-.72-.51-1.29-.88-1.72-.38-.43-.84-.73-1.38-.91-.54-.18-1.12-.27-1.74-.27-1.11,0-2.03.22-2.75.66-.72.44-1.3,1.04-1.72,1.8-.43.75-.75,1.62-.96,2.6-.21.98-.35,2.01-.42,3.1h10.08Z"/></svg>